<svg version="1.1" id="Layer_1" xmlns="http://www.w3.org/2000/svg" xmlns:xlink="http://www.w3.org/1999/xlink" x="0px" y="0px"
	 width="100%" viewBox="0 0 2816 1536" enable-background="new 0 0 2816 1536" xml:space="preserve">
<path fill="#FEFEFE" opacity="1.000000" stroke="none" 
	d="
M2090.000000,1538.000000 
	C1393.413086,1538.000000 697.826233,1538.000000 2.119668,1538.000000 
	C2.119668,1026.138550 2.119668,514.276978 2.119668,2.207742 
	C940.420471,2.207742 1878.840942,2.207742 2817.630859,2.207742 
	C2817.630859,513.999756 2817.630859,1025.999878 2817.630859,1538.000000 
	C2575.609863,1538.000000 2333.304932,1538.000000 2090.000000,1538.000000 
M684.009216,975.000000 
	C684.013184,1068.989868 684.013306,1162.979858 684.035828,1256.969727 
	C684.036682,1260.630005 683.893066,1264.343384 684.424744,1267.942139 
	C688.183228,1293.383301 700.368408,1314.208252 719.857483,1330.719482 
	C732.618774,1341.530762 747.852356,1348.770874 764.175232,1349.483154 
	C782.610657,1350.287476 801.177124,1350.737305 819.736389,1350.540405 
	C859.309875,1350.120117 898.967163,1347.980835 938.518677,1351.799561 
	C940.819763,1352.021851 943.179993,1351.808105 945.499634,1351.628174 
	C951.438110,1351.167725 957.379089,1350.091187 963.301392,1350.202148 
	C975.904663,1350.438354 988.492859,1351.577271 1001.095032,1351.739136 
	C1008.016479,1351.828247 1014.949402,1350.244995 1021.884766,1350.175659 
	C1043.880859,1349.955444 1065.880737,1350.035889 1087.878540,1350.138550 
	C1092.463135,1350.160034 1097.040894,1350.983032 1101.629150,1351.076660 
	C1115.186279,1351.353271 1128.747314,1351.569214 1142.306763,1351.573608 
	C1150.930420,1351.576294 1159.554932,1351.185547 1168.177612,1350.922974 
	C1173.810913,1350.751343 1179.450928,1350.183472 1185.071167,1350.352539 
	C1192.014038,1350.561279 1198.949707,1351.918457 1205.870972,1351.795532 
	C1249.797241,1351.015259 1293.727661,1353.286987 1337.675049,1350.372314 
	C1361.236206,1348.809692 1384.986938,1350.008911 1408.650635,1350.168091 
	C1413.580200,1350.201294 1418.666870,1352.193726 1423.397705,1351.458618 
	C1435.364380,1349.599487 1447.107422,1349.550415 1459.055908,1351.552490 
	C1463.845947,1352.355103 1468.953491,1351.103638 1473.919678,1351.043213 
	C1490.866943,1350.836914 1507.815796,1350.622925 1524.763428,1350.671631 
	C1531.043335,1350.689697 1537.330200,1351.874390 1543.598022,1351.745361 
	C1557.740845,1351.454224 1571.871948,1350.615845 1586.012573,1350.148804 
	C1588.633789,1350.062256 1591.271484,1350.807129 1593.912720,1350.935181 
	C1600.870728,1351.273193 1607.841675,1351.804077 1614.794678,1351.655762 
	C1622.068970,1351.500366 1629.325439,1350.218140 1636.594727,1350.168091 
	C1663.924683,1349.979858 1691.257080,1350.022461 1718.587646,1350.155518 
	C1723.856445,1350.181152 1729.126953,1351.440552 1734.386963,1351.373169 
	C1747.522095,1351.205200 1760.651123,1350.577881 1773.784546,1350.209351 
	C1775.081299,1350.172974 1776.384033,1350.780762 1777.698242,1350.863159 
	C1783.318970,1351.216064 1788.955200,1351.849976 1794.566772,1351.695068 
	C1802.507690,1351.475830 1810.425903,1350.288574 1818.364136,1350.162109 
	C1834.358765,1349.907104 1850.368286,1349.769165 1866.357544,1350.159424 
	C1895.283936,1350.865234 1924.279419,1348.026367 1953.147949,1351.822388 
	C1954.765869,1352.035034 1956.466064,1351.696533 1958.120972,1351.540405 
	C1963.059570,1351.074463 1968.005859,1350.067017 1972.929077,1350.176147 
	C1988.530396,1350.522095 2004.119385,1351.590942 2019.719727,1351.754639 
	C2028.308716,1351.844849 2036.927002,1350.016479 2045.504150,1350.221436 
	C2063.365234,1350.647827 2079.710449,1346.341553 2094.661621,1336.649170 
	C2121.901367,1318.990601 2137.940186,1294.388794 2137.960205,1261.515015 
	C2138.156006,938.873657 2138.072754,616.231995 2138.059326,293.590454 
	C2138.058350,272.700684 2132.247559,253.976425 2119.012451,237.326538 
	C2100.630615,214.202301 2077.162598,201.973221 2047.677979,201.969177 
	C1624.044312,201.911270 1200.410522,201.932556 776.776855,201.913864 
	C753.562378,201.912842 733.289490,209.105957 715.794861,224.762039 
	C694.716553,243.625214 684.059570,266.955231 684.051331,295.052734 
	C683.984802,521.035156 684.010254,747.017578 684.009216,975.000000 
z"/>
<path fill="#D8D8D8" opacity="1.000000" stroke="none" 
	d="
M684.008423,974.000000 
	C684.010254,747.017578 683.984802,521.035156 684.051331,295.052734 
	C684.059570,266.955231 694.716553,243.625214 715.794861,224.762039 
	C733.289490,209.105957 753.562378,201.912842 776.776855,201.913864 
	C1200.410522,201.932556 1624.044312,201.911270 2047.677979,201.969177 
	C2077.162598,201.973221 2100.630615,214.202301 2119.012451,237.326538 
	C2132.247559,253.976425 2138.058350,272.700684 2138.059326,293.590454 
	C2138.072754,616.231995 2138.156006,938.873657 2137.960205,1261.515015 
	C2137.940186,1294.388794 2121.901367,1318.990601 2094.661621,1336.649170 
	C2079.710449,1346.341553 2063.365234,1350.647827 2045.504150,1350.221436 
	C2036.927002,1350.016479 2028.308716,1351.844849 2019.719727,1351.754639 
	C2004.119385,1351.590942 1988.530396,1350.522095 1972.929077,1350.176147 
	C1968.005859,1350.067017 1963.059570,1351.074463 1958.120972,1351.540405 
	C1956.466064,1351.696533 1954.765869,1352.035034 1953.147949,1351.822388 
	C1924.279419,1348.026367 1895.283936,1350.865234 1866.357544,1350.159424 
	C1850.368286,1349.769165 1834.358765,1349.907104 1818.364136,1350.162109 
	C1810.425903,1350.288574 1802.507690,1351.475830 1794.566772,1351.695068 
	C1788.955200,1351.849976 1783.318970,1351.216064 1777.698242,1350.863159 
	C1776.384033,1350.780762 1775.081299,1350.172974 1773.784546,1350.209351 
	C1760.651123,1350.577881 1747.522095,1351.205200 1734.386963,1351.373169 
	C1729.126953,1351.440552 1723.856445,1350.181152 1718.587646,1350.155518 
	C1691.257080,1350.022461 1663.924683,1349.979858 1636.594727,1350.168091 
	C1629.325439,1350.218140 1622.068970,1351.500366 1614.794678,1351.655762 
	C1607.841675,1351.804077 1600.870728,1351.273193 1593.912720,1350.935181 
	C1591.271484,1350.807129 1588.633789,1350.062256 1586.012573,1350.148804 
	C1571.871948,1350.615845 1557.740845,1351.454224 1543.598022,1351.745361 
	C1537.330200,1351.874390 1531.043335,1350.689697 1524.763428,1350.671631 
	C1507.815796,1350.622925 1490.866943,1350.836914 1473.919678,1351.043213 
	C1468.953491,1351.103638 1463.845947,1352.355103 1459.055908,1351.552490 
	C1447.107422,1349.550415 1435.364380,1349.599487 1423.397705,1351.458618 
	C1418.666870,1352.193726 1413.580200,1350.201294 1408.650635,1350.168091 
	C1384.986938,1350.008911 1361.236206,1348.809692 1337.675049,1350.372314 
	C1293.727661,1353.286987 1249.797241,1351.015259 1205.870972,1351.795532 
	C1198.949707,1351.918457 1192.014038,1350.561279 1185.071167,1350.352539 
	C1179.450928,1350.183472 1173.810913,1350.751343 1168.177612,1350.922974 
	C1159.554932,1351.185547 1150.930420,1351.576294 1142.306763,1351.573608 
	C1128.747314,1351.569214 1115.186279,1351.353271 1101.629150,1351.076660 
	C1097.040894,1350.983032 1092.463135,1350.160034 1087.878540,1350.138550 
	C1065.880737,1350.035889 1043.880859,1349.955444 1021.884766,1350.175659 
	C1014.949402,1350.244995 1008.016479,1351.828247 1001.095032,1351.739136 
	C988.492859,1351.577271 975.904663,1350.438354 963.301392,1350.202148 
	C957.379089,1350.091187 951.438110,1351.167725 945.499634,1351.628174 
	C943.179993,1351.808105 940.819763,1352.021851 938.518677,1351.799561 
	C898.967163,1347.980835 859.309875,1350.120117 819.736389,1350.540405 
	C801.177124,1350.737305 782.610657,1350.287476 764.175232,1349.483154 
	C747.852356,1348.770874 732.618774,1341.530762 719.857483,1330.719482 
	C700.368408,1314.208252 688.183228,1293.383301 684.424744,1267.942139 
	C683.893066,1264.343384 684.036682,1260.630005 684.035828,1256.969727 
	C684.013306,1162.979858 684.013184,1068.989868 684.008423,974.000000 
M1749.000000,1327.936279 
	C1846.989746,1327.939331 1944.979492,1327.949829 2042.969238,1327.918457 
	C2046.947388,1327.917114 2051.011719,1327.973267 2054.890137,1327.236084 
	C2091.073975,1320.358276 2116.114990,1290.301636 2116.085693,1252.048950 
	C2115.843506,935.740662 2115.960693,619.432129 2115.856689,303.123657 
	C2115.854004,295.207184 2115.554199,287.045898 2113.674561,279.422546 
	C2108.765869,259.514862 2097.403809,244.037781 2079.403076,233.656784 
	C2067.222656,226.632294 2053.985840,224.141953 2040.185303,224.139893 
	C1797.537720,224.103760 1554.890015,224.088745 1312.242432,224.180099 
	C1302.312744,224.183838 1292.383911,225.718994 1282.453857,225.728912 
	C1272.857178,225.738495 1263.259766,224.199509 1253.662109,224.192581 
	C1101.340698,224.082809 949.019409,224.072235 796.698120,224.188507 
	C786.104919,224.196594 775.383240,224.557465 764.948914,226.200165 
	C747.193726,228.995392 732.544128,237.852203 721.865295,252.491760 
	C712.193726,265.750549 707.743958,280.407257 707.757385,297.209564 
	C708.012146,616.184326 707.949524,935.159302 707.954163,1254.134277 
	C707.954224,1256.800659 707.819580,1259.477905 708.006287,1262.131836 
	C709.248413,1279.785522 716.067566,1295.284424 728.759155,1307.299072 
	C743.468750,1321.223877 761.298645,1328.082275 782.075867,1328.071533 
	C1103.717163,1327.903809 1425.358643,1327.944824 1749.000000,1327.936279 
z"/>
<path fill="#FDFDFD" opacity="1.000000" stroke="none" 
	d="
M1748.000000,1327.936890 
	C1425.358643,1327.944824 1103.717163,1327.903809 782.075867,1328.071533 
	C761.298645,1328.082275 743.468750,1321.223877 728.759155,1307.299072 
	C716.067566,1295.284424 709.248413,1279.785522 708.006287,1262.131836 
	C707.819580,1259.477905 707.954224,1256.800659 707.954163,1254.134277 
	C707.949524,935.159302 708.012146,616.184326 707.757385,297.209564 
	C707.743958,280.407257 712.193726,265.750549 721.865295,252.491760 
	C732.544128,237.852203 747.193726,228.995392 764.948914,226.200165 
	C775.383240,224.557465 786.104919,224.196594 796.698120,224.188507 
	C949.019409,224.072235 1101.340698,224.082809 1253.662109,224.192581 
	C1263.259766,224.199509 1272.857178,225.738495 1282.453857,225.728912 
	C1292.383911,225.718994 1302.312744,224.183838 1312.242432,224.180099 
	C1554.890015,224.088745 1797.537720,224.103760 2040.185303,224.139893 
	C2053.985840,224.141953 2067.222656,226.632294 2079.403076,233.656784 
	C2097.403809,244.037781 2108.765869,259.514862 2113.674561,279.422546 
	C2115.554199,287.045898 2115.854004,295.207184 2115.856689,303.123657 
	C2115.960693,619.432129 2115.843506,935.740662 2116.085693,1252.048950 
	C2116.114990,1290.301636 2091.073975,1320.358276 2054.890137,1327.236084 
	C2051.011719,1327.973267 2046.947388,1327.917114 2042.969238,1327.918457 
	C1944.979492,1327.949829 1846.989746,1327.939331 1748.000000,1327.936890 
M1467.023193,692.999512 
	C1467.023193,809.924805 1467.023193,926.850098 1467.023193,1044.053101 
	C1470.359497,1044.265747 1472.652710,1044.539185 1474.945801,1044.539551 
	C1537.611206,1044.547974 1600.276611,1044.536621 1662.942017,1044.509155 
	C1684.663574,1044.499634 1706.209839,1042.586548 1727.451904,1037.959595 
	C1806.960449,1020.641113 1866.266846,977.106323 1901.106445,902.668884 
	C1916.651001,869.456848 1924.307739,834.095520 1926.604736,797.494507 
	C1929.427124,752.518127 1926.080078,708.237244 1911.698242,665.296448 
	C1891.830322,605.975952 1855.469849,560.009094 1800.041626,529.966187 
	C1760.277954,508.413696 1717.463989,498.331970 1672.467041,498.059875 
	C1606.470825,497.660767 1540.470215,497.982758 1474.471558,498.026459 
	C1472.261597,498.027924 1470.051880,498.342651 1467.031738,498.573242 
	C1467.031738,563.100830 1467.031738,627.050110 1467.023193,692.999512 
M1258.839600,906.999695 
	C1258.839600,952.576904 1258.839600,998.154053 1258.839600,1043.925293 
	C1291.665161,1043.925293 1323.483032,1043.925293 1355.504150,1043.925293 
	C1355.504150,861.826965 1355.504150,680.338806 1355.504150,498.579163 
	C1323.207153,498.579163 1291.442383,498.579163 1258.426758,498.579163 
	C1258.426758,574.318542 1258.426758,649.420959 1258.426758,724.439697 
	C1220.704956,726.483643 999.495972,725.172974 992.052002,722.690674 
	C992.052002,648.107971 992.052002,573.273804 992.052002,498.475403 
	C959.760498,498.475403 928.223267,498.475403 896.290527,498.475403 
	C896.290527,680.506165 896.290527,862.001892 896.290527,1043.817627 
	C928.521423,1043.817627 960.260681,1043.817627 992.977905,1043.817627 
	C992.977905,965.267517 992.977905,887.449951 992.977905,808.789246 
	C1082.058228,808.689941 1170.153442,808.476135 1258.843628,808.835327 
	C1258.843628,841.784302 1258.843628,873.391968 1258.839600,906.999695 
z"/>
<path fill="#010101" opacity="1.000000" stroke="none" 
	d="
M1467.027466,691.999451 
	C1467.031738,627.050110 1467.031738,563.100830 1467.031738,498.573242 
	C1470.051880,498.342651 1472.261597,498.027924 1474.471558,498.026459 
	C1540.470215,497.982758 1606.470825,497.660767 1672.467041,498.059875 
	C1717.463989,498.331970 1760.277954,508.413696 1800.041626,529.966187 
	C1855.469849,560.009094 1891.830322,605.975952 1911.698242,665.296448 
	C1926.080078,708.237244 1929.427124,752.518127 1926.604736,797.494507 
	C1924.307739,834.095520 1916.651001,869.456848 1901.106445,902.668884 
	C1866.266846,977.106323 1806.960449,1020.641113 1727.451904,1037.959595 
	C1706.209839,1042.586548 1684.663574,1044.499634 1662.942017,1044.509155 
	C1600.276611,1044.536621 1537.611206,1044.547974 1474.945801,1044.539551 
	C1472.652710,1044.539185 1470.359497,1044.265747 1467.023193,1044.053101 
	C1467.023193,926.850098 1467.023193,809.924805 1467.027466,691.999451 
M1756.808594,933.900269 
	C1784.908569,914.599670 1804.995117,888.963440 1815.870361,856.693787 
	C1833.255493,805.108093 1834.178955,752.654846 1820.839478,700.149597 
	C1812.445557,667.110718 1795.798340,638.538574 1768.991455,616.702026 
	C1739.573853,592.738892 1704.925781,583.175171 1667.819336,582.184387 
	C1635.511230,581.321655 1603.161865,581.988831 1570.830811,582.010986 
	C1568.927979,582.012268 1567.025269,582.291382 1564.876953,582.460571 
	C1564.876953,708.567749 1564.876953,834.015930 1564.876953,959.271912 
	C1566.168457,959.662537 1566.789062,960.015381 1567.409058,960.014221 
	C1603.403320,959.947021 1639.424927,960.678894 1675.383301,959.494507 
	C1704.068115,958.549744 1731.083374,950.181152 1756.808594,933.900269 
z"/>
<path fill="#020202" opacity="1.000000" stroke="none" 
	d="
M1258.841553,905.999634 
	C1258.843628,873.391968 1258.843628,841.784302 1258.843628,808.835327 
	C1170.153442,808.476135 1082.058228,808.689941 992.977905,808.789246 
	C992.977905,887.449951 992.977905,965.267517 992.977905,1043.817627 
	C960.260681,1043.817627 928.521423,1043.817627 896.290527,1043.817627 
	C896.290527,862.001892 896.290527,680.506165 896.290527,498.475403 
	C928.223267,498.475403 959.760498,498.475403 992.052002,498.475403 
	C992.052002,573.273804 992.052002,648.107971 992.052002,722.690674 
	C999.495972,725.172974 1220.704956,726.483643 1258.426758,724.439697 
	C1258.426758,649.420959 1258.426758,574.318542 1258.426758,498.579163 
	C1291.442383,498.579163 1323.207153,498.579163 1355.504150,498.579163 
	C1355.504150,680.338806 1355.504150,861.826965 1355.504150,1043.925293 
	C1323.483032,1043.925293 1291.665161,1043.925293 1258.839600,1043.925293 
	C1258.839600,998.154053 1258.839600,952.576904 1258.841553,905.999634 
z"/>
<path fill="#FDFDFD" opacity="1.000000" stroke="none" 
	d="
M1756.185547,934.272705 
	C1731.083374,950.181152 1704.068115,958.549744 1675.383301,959.494507 
	C1639.424927,960.678894 1603.403320,959.947021 1567.409058,960.014221 
	C1566.789062,960.015381 1566.168457,959.662537 1564.876953,959.271912 
	C1564.876953,834.015930 1564.876953,708.567749 1564.876953,582.460571 
	C1567.025269,582.291382 1568.927979,582.012268 1570.830811,582.010986 
	C1603.161865,581.988831 1635.511230,581.321655 1667.819336,582.184387 
	C1704.925781,583.175171 1739.573853,592.738892 1768.991455,616.702026 
	C1795.798340,638.538574 1812.445557,667.110718 1820.839478,700.149597 
	C1834.178955,752.654846 1833.255493,805.108093 1815.870361,856.693787 
	C1804.995117,888.963440 1784.908569,914.599670 1756.185547,934.272705 
z"/>
</svg>